<?xml version="1.0" encoding="utf-8"?>
<!-- Generator: Adobe Illustrator 26.0.3, SVG Export Plug-In . SVG Version: 6.00 Build 0)  -->
<svg version="1.0" id="Layer_1" xmlns="http://www.w3.org/2000/svg" xmlns:xlink="http://www.w3.org/1999/xlink" x="0px" y="0px"
	 viewBox="0 0 243 151.6" style="enable-background:new 0 0 243 151.6;" xml:space="preserve">
<style type="text/css">
	.st0{fill:#1B1B20;}
	.st1{fill:#0066FF;}
</style>
<path class="st0" d="M93.1,86.2c7,0,11.3-4.7,11.6-10.4h-5.1c-0.3,3.1-2.3,5.8-6.4,5.8c-4.6,0-6.6-3.2-6.6-7.6v-4.5
	c0-4.4,2-7.6,6.6-7.6c4.1,0,6.1,2.7,6.4,5.8h5.1c-0.3-5.7-4.6-10.4-11.6-10.4c-8.3,0-12.1,5.3-12.1,12.4v3.9
	C81,80.9,84.8,86.2,93.1,86.2z"/>
<path class="st0" d="M107.6,85.7h5.4V73.5c0-2.8,1.5-4.2,3.9-4.2c2.6,0,3.8,1.7,3.8,4.1v12.3h5.4V72.5c0-4.8-2.8-7.8-7.3-7.8
	c-2.3-0.1-4.5,1-5.8,2.9V56.9h-5.4L107.6,85.7z"/>
<path class="st0" d="M136.2,86.2c2.4,0,5-1,5.9-2.4v1.9h5.2V72.6c0-4.8-3.5-7.9-8.6-7.9c-4.4,0-7.6,2.1-8.8,6.1h5
	c0.7-1.3,2.1-2.1,3.6-1.9c1.8-0.2,3.4,1.2,3.5,3c0,0.1,0,0.2,0,0.4V75c-1.5-1.2-3.3-1.8-5.2-1.7c-4.9,0-8.3,2-8.3,6.5
	C128.5,83.8,131.6,86.2,136.2,86.2z M137.6,82.6c-2.2,0-4-1.1-4-3s1.6-2.9,4.1-2.9s4.2,1.1,4.2,2.9S140,82.6,137.6,82.6z"/>
<path class="st0" d="M157.4,85.7h3.7v-4.3h-2.2c-1.4,0-1.9-0.6-1.9-1.9v-10h4.4v-4.3H157v-5.6h-5.4v5.6h-2.9v4.3h2.9v10.3
	C151.6,83.5,153.4,85.7,157.4,85.7z"/>
<path class="st0" d="M164,85.7h12.6c5.5,0,9.4-3.2,9.4-7.8c0.2-3.2-2-6-5.1-6.5c2.3-1.3,3.6-3.8,3.5-6.4c0-4.1-3-7-7.9-7H164
	L164,85.7z M169.4,81.3v-7.6h6.9c2.6,0,4.1,1.4,4.1,3.7s-1.5,3.8-4.1,3.8L169.4,81.3z M169.4,69.5v-7.1h5.8c2.3,0,3.6,1.3,3.6,3.4
	c0.2,1.9-1.2,3.5-3.1,3.7c-0.2,0-0.3,0-0.5,0H169.4z"/>
<path class="st0" d="M196.8,86.2c6.2,0,9.7-4,9.7-9.3V74c0-5.2-3.5-9.3-9.7-9.3s-9.7,4-9.7,9.3v2.9
	C187.1,82.1,190.7,86.2,196.8,86.2z M201.3,77.2c0,2.7-1.4,4.7-4.5,4.7s-4.4-2-4.4-4.7v-3.6c0-2.7,1.4-4.7,4.4-4.7s4.5,2,4.5,4.7
	V77.2z"/>
<path class="st0" d="M216,85.7h3.7v-4.3h-2.2c-1.4,0-1.9-0.6-1.9-1.9v-10h4.4v-4.3h-4.4v-5.6h-5.4v5.6h-2.9v4.3h2.9v10.3
	C210.2,83.5,212.1,85.7,216,85.7z"/>
<path class="st1" d="M57.2,70.8v4.6c0,0.3-0.1,0.6-0.2,0.9c-0.2,0.3-0.4,0.5-0.7,0.6c-3.2,1.5-6.6,2.3-10.1,2.4
	c-3.5-0.1-7-1-10.1-2.5c-0.3-0.1-0.5-0.3-0.7-0.6c-0.2-0.3-0.2-0.6-0.2-0.9v-4.5c0-0.2,0.1-0.4,0.2-0.6c0.2-0.4,0.6-0.6,1-0.6
	c0.2,0,0.4,0,0.6,0.1c2.9,1.3,6.1,2,9.2,2.1c3.2-0.1,6.3-0.8,9.2-2.1c0.2-0.1,0.4-0.1,0.6-0.1c0.2,0,0.4,0.1,0.6,0.2
	c0.2,0.1,0.3,0.3,0.4,0.4C57.1,70.4,57.2,70.6,57.2,70.8z"/>
<path class="st1" d="M69.1,81.4c-0.5,5.7-5.3,10-11,10H52L40.4,99v-7.5L52,83.9h6.1c1.8,0.1,3.3-1.3,3.5-3.1
	c0.3-5.8,0.3-11.6-0.1-17.4c-0.1-0.8-0.4-1.5-1-2c-0.5-0.5-1.2-0.9-2-0.9c-4-0.2-8.1-0.4-12.3-0.4s-8.3,0.1-12.3,0.4
	c-1.6,0.1-2.9,1.4-3,2.9c-0.4,5.8-0.4,11.6-0.1,17.4c0.1,0.9,0.5,1.6,1.2,2.2c0.7,0.6,1.5,0.9,2.4,0.8h6.1v7.5h-6.1
	c-5.7,0-10.5-4.3-11-10C23,75.3,23,69.1,23.4,62.9c0.5-5.3,4.7-9.5,10-9.8c4.1-0.3,8.5-0.4,12.8-0.4S55,52.7,59.1,53
	c5.3,0.4,9.6,4.6,10,9.9C69.5,69.1,69.6,75.3,69.1,81.4L69.1,81.4z"/>
</svg>
